<?xml version="1.0" encoding="iso-8859-1"?>
<!-- Generator: Adobe Illustrator 19.0.0, SVG Export Plug-In . SVG Version: 6.00 Build 0)  -->
<svg version="1.1" id="Capa_1" xmlns="http://www.w3.org/2000/svg" xmlns:xlink="http://www.w3.org/1999/xlink" x="0px" y="0px"
	 viewBox="0 0 512.092 512.092" style="enable-background:new 0 0 512.092 512.092;" xml:space="preserve">
<g transform="translate(-1 -1)">
	<g>
		<g>
			<path d="M291.179,106.391v-2.899c-0.039-3.878-0.746-7.72-2.091-11.358c16.949-13.6,23.467-36.416,16.259-56.917
				S278.776,1,257.046,1s-41.094,13.717-48.301,34.217c-7.208,20.5-0.69,43.317,16.259,56.917c-1.345,3.638-2.052,7.48-2.091,11.358
				v2.899C117.935,124.127,44.059,219.345,52.963,325.437s97.617,187.665,204.083,187.655
				c106.465,0.01,195.179-81.563,204.083-187.655C470.033,219.345,396.157,124.127,291.179,106.391z M222.912,52.292
				c0-18.851,15.282-34.133,34.133-34.133s34.133,15.282,34.133,34.133c0.031,9.855-4.252,19.231-11.723,25.659
				c-12.744-11.456-32.077-11.456-44.821,0C227.165,71.523,222.881,62.147,222.912,52.292z M274.112,103.492h-34.133
				c0-9.426,7.641-17.067,17.067-17.067S274.112,94.066,274.112,103.492z M257.046,496.025
				c-103.682,0-187.733-84.051-187.733-187.733c0.117-103.634,84.1-187.616,187.733-187.733
				c103.682,0,187.733,84.051,187.733,187.733S360.728,496.025,257.046,496.025z"/>
			<path d="M367.5,189.938l0.304-0.363c1.959-2.337,2.522-5.542,1.478-8.407c-1.044-2.865-3.538-4.955-6.542-5.483
				c-3.003-0.528-6.06,0.586-8.02,2.924l-0.3,0.357c-10.479-7.986-21.894-14.664-33.992-19.884l0.083-0.227
				c1.045-2.865,0.481-6.069-1.479-8.405s-5.017-3.449-8.02-2.918s-5.494,2.624-6.534,5.49l-0.083,0.23
				c-12.619-3.796-25.654-6.033-38.817-6.66v-0.432c0-4.713-3.82-8.533-8.533-8.533s-8.533,3.82-8.533,8.533v0.432
				c-13.162,0.628-26.198,2.864-38.817,6.66l-0.083-0.23c-1.04-2.866-3.532-4.959-6.534-5.49c-3.003-0.531-6.06,0.582-8.02,2.918
				c-1.96,2.336-2.524,5.541-1.479,8.405l0.083,0.227c-12.097,5.221-23.512,11.898-33.992,19.884l-0.3-0.357
				c-3.028-3.613-8.412-4.087-12.025-1.058c-3.613,3.028-4.087,8.412-1.058,12.025l0.304,0.363
				c-9.637,8.969-18.154,19.071-25.362,30.087l-0.325-0.188c-2.64-1.535-5.899-1.542-8.546-0.018
				c-2.647,1.524-4.277,4.346-4.274,7.4c0.003,3.054,1.637,5.874,4.287,7.393l0.337,0.195c-5.999,11.729-10.532,24.151-13.5,36.987
				l-0.346-0.061c-4.637-0.809-9.053,2.289-9.871,6.924s2.271,9.057,6.904,9.885l0.335,0.06c-1.758,13.068-1.758,26.313,0,39.381
				l-0.335,0.06c-4.354,0.771-7.398,4.739-7.014,9.144s4.068,7.787,8.49,7.794c0.5,0,0.999-0.043,1.492-0.129l0.346-0.061
				c2.967,12.836,7.501,25.258,13.5,36.987l-0.337,0.195c-2.649,1.519-4.284,4.339-4.287,7.393c-0.003,3.054,1.628,5.876,4.274,7.4
				c2.647,1.524,5.906,1.517,8.546-0.018l0.325-0.188c7.209,11.016,15.725,21.118,25.362,30.087l-0.304,0.363
				c-3.028,3.613-2.555,8.997,1.058,12.025s8.997,2.555,12.025-1.058l0.3-0.357c10.479,7.986,21.894,14.664,33.992,19.884
				l-0.083,0.227c-1.045,2.865-0.481,6.069,1.479,8.405c1.96,2.336,5.017,3.449,8.02,2.918c3.003-0.531,5.494-2.624,6.534-5.49
				l0.083-0.23c12.619,3.796,25.654,6.033,38.817,6.661v0.432c0,4.713,3.82,8.533,8.533,8.533s8.533-3.82,8.533-8.533v-0.432
				c13.162-0.628,26.198-2.864,38.817-6.66l0.083,0.23c1.04,2.866,3.532,4.959,6.534,5.49c3.003,0.531,6.06-0.582,8.02-2.918
				c1.96-2.336,2.524-5.541,1.479-8.405l-0.083-0.227c12.097-5.221,23.512-11.898,33.992-19.884l0.3,0.357
				c1.959,2.337,5.016,3.452,8.02,2.924c3.003-0.528,5.497-2.618,6.542-5.483s0.481-6.07-1.478-8.407l-0.304-0.363
				c9.637-8.969,18.154-19.071,25.362-30.087l0.325,0.188c1.293,0.752,2.762,1.148,4.258,1.146c3.865,0.006,7.251-2.586,8.253-6.318
				c1.002-3.732-0.63-7.672-3.978-9.602l-0.337-0.195c5.999-11.729,10.532-24.151,13.5-36.987l0.346,0.061
				c0.493,0.086,0.992,0.129,1.492,0.129c4.421-0.006,8.106-3.389,8.489-7.794c0.384-4.405-2.661-8.373-7.014-9.144l-0.335-0.06
				c1.758-13.068,1.758-26.313,0-39.381l0.335-0.06c4.633-0.827,7.722-5.25,6.904-9.885c-0.818-4.635-5.234-7.732-9.871-6.924
				l-0.346,0.061c-2.967-12.836-7.501-25.258-13.5-36.987l0.337-0.195c2.649-1.519,4.284-4.339,4.287-7.393s-1.628-5.876-4.274-7.4
				s-5.906-1.517-8.546,0.018l-0.325,0.188C385.654,209.009,377.137,198.906,367.5,189.938z M402.112,308.292
				c0,80.118-64.949,145.067-145.067,145.067c-80.081-0.089-144.977-64.986-145.067-145.067
				c0-80.118,64.949-145.067,145.067-145.067S402.112,228.174,402.112,308.292z"/>
			<path d="M288.614,295.274c-3.482-8.387-10.144-15.053-18.528-18.542l-92.881-60.082c-3.378-2.183-7.822-1.711-10.667,1.133
				s-3.316,7.288-1.133,10.667l60.074,92.859c3.482,8.387,10.144,15.053,18.528,18.542l92.881,60.082
				c3.378,2.183,7.823,1.711,10.667-1.133s3.316-7.288,1.133-10.667L288.614,295.274z M227.05,292.315L201.354,252.6l39.722,25.693
				C234.995,281.311,230.069,286.235,227.05,292.315z M244.979,320.358c-4.88-4.881-6.34-12.221-3.698-18.597
				c2.641-6.377,8.863-10.535,15.765-10.536c6.903-0.001,13.126,4.157,15.768,10.535s1.181,13.718-3.701,18.599
				C262.361,326.808,251.731,326.808,244.979,320.358z M273.016,338.29c6.081-3.017,11.007-7.942,14.026-14.022l25.696,39.715
				L273.016,338.29z"/>
			<path d="M239.979,231.492c2.263,0.001,4.434-0.898,6.035-2.499c1.6-1.6,2.499-3.771,2.499-6.035v-13.533l19.567,19.567
				c2.44,2.441,6.111,3.171,9.299,1.85s5.268-4.432,5.267-7.884v-34.133c0-4.713-3.82-8.533-8.533-8.533s-8.533,3.82-8.533,8.533
				v13.533l-19.567-19.567c-2.44-2.441-6.11-3.171-9.299-1.85s-5.268,4.432-5.267,7.884v34.133
				c-0.001,2.263,0.898,4.434,2.499,6.035C235.545,230.593,237.716,231.492,239.979,231.492z"/>
		</g>
	</g>
</g>
<g>
</g>
<g>
</g>
<g>
</g>
<g>
</g>
<g>
</g>
<g>
</g>
<g>
</g>
<g>
</g>
<g>
</g>
<g>
</g>
<g>
</g>
<g>
</g>
<g>
</g>
<g>
</g>
<g>
</g>
</svg>
