<?xml version="1.0" encoding="iso-8859-1"?>
<!-- Generator: Adobe Illustrator 19.0.0, SVG Export Plug-In . SVG Version: 6.00 Build 0)  -->
<svg version="1.1" id="Capa_1" xmlns="http://www.w3.org/2000/svg" xmlns:xlink="http://www.w3.org/1999/xlink" x="0px" y="0px"
	 viewBox="0 0 512.001 512.001" style="enable-background:new 0 0 512.001 512.001;" xml:space="preserve">
<g>
	<g>
		<g>
			<path d="M499.626,81.583L417.709,32.15c-8.132-4.921-18.323-4.921-26.454,0l-81.35,49.084c-2.71,1.646-6.111,1.646-8.821,0
				l-81.35-49.083c-8.132-4.921-18.323-4.921-26.454,0l-81.35,49.084c-2.709,1.65-6.112,1.65-8.821,0L38.821,42.441
				c-7.889-4.83-17.785-4.971-25.808-0.367C4.926,46.568-0.063,55.116,0.001,64.367V408.5c0.025,8.963,4.713,17.266,12.375,21.917
				l81.917,49.434c8.135,4.908,18.319,4.908,26.454,0l81.35-49.084c2.708-1.654,6.113-1.654,8.821,0l81.35,49.084
				c8.131,4.922,18.323,4.922,26.454,0l81.354-49.092c2.712-1.635,6.107-1.632,8.817,0.009l64.283,38.792
				c7.908,4.769,17.771,4.91,25.812,0.369c8.041-4.541,13.013-13.06,13.013-22.295V103.5
				C511.975,94.537,507.287,86.234,499.626,81.583z M494.934,262.668c-0.812-0.91-1.58-1.863-2.45-2.719
				c-22.617-22.242-59.017-21.642-88.325-21.15c-4.025,0.067-7.925,0.133-11.625,0.133c-35.071,0-42.604-26.483-42.933-27.725
				c-1.158-4.569-5.8-7.335-10.369-6.177c-4.569,1.157-7.335,5.8-6.177,10.369c3.513,14.042,20.459,40.6,59.479,40.6
				c3.792,0,7.783-0.067,11.917-0.133c26.067-0.467,58.542-0.983,76.067,16.25c9.7,9.542,14.417,23.808,14.417,43.617v131.9
				c0,3.078-1.658,5.918-4.338,7.431c-2.68,1.514-5.968,1.467-8.604-0.123l-64.283-38.792c-8.132-4.921-18.323-4.921-26.454,0
				l-81.35,49.084c-2.71,1.646-6.111,1.646-8.821,0l-7.695-4.643c16.376-48.542-13.647-73.639-14.967-74.699
				c-3.668-2.957-9.039-2.381-11.996,1.288c-2.957,3.668-2.381,9.039,1.287,11.996c0.22,0.181,20.778,17.34,10.696,52.377
				l-58.675-35.402c-8.132-4.921-18.323-4.921-26.454,0l-81.35,49.084c-2.709,1.65-6.112,1.65-8.821,0L21.184,415.8
				c-2.55-1.551-4.109-4.316-4.117-7.3V205.347c15.327,1.341,30.201,5.893,43.654,13.359c-0.627,3.867-0.957,7.776-0.987,11.694
				c0,39.225,62.638,131.042,69.779,141.383c0.507,0.709,1.121,1.336,1.82,1.857c0.151,0.118,0.308,0.215,0.468,0.322
				c0.83,0.58,1.757,1.007,2.738,1.261l0.04,0.018c0,0,3.279,0.775,8.875,1.725c0.474,0.076,0.953,0.115,1.434,0.117
				c4.16-0.004,7.71-3.007,8.404-7.108c0.482-3.028-0.718-6.08-3.135-7.967c15.15-22.621,29.101-46.021,41.797-70.105
				c15.88,5.261,29.787,15.222,39.88,28.564c1.679,2.565,4.605,4.032,7.665,3.843c3.06-0.189,5.783-2.004,7.134-4.756
				s1.122-6.017-0.6-8.554c-11.701-15.918-27.923-27.945-46.554-34.516c7.538-14.328,12.242-29.975,13.854-46.084
				c0.016-36.78-26.058-68.404-62.167-75.4c-36.109-6.995-72.106,12.603-85.827,46.728c-15.074-7.566-31.463-12.159-48.273-13.527
				V64.367c-0.031-3.087,1.635-5.942,4.338-7.433c1.299-0.727,2.761-1.117,4.25-1.133c1.54,0.006,3.048,0.442,4.354,1.258
				L94.292,95.85c8.135,4.908,18.319,4.908,26.454,0l81.35-49.083c2.708-1.654,6.113-1.654,8.821,0l45.422,27.405
				c-3.089,6.672-17.271,40.424,2.162,59.861c3.339,3.288,8.706,3.267,12.019-0.047s3.335-8.68,0.047-12.019
				c-10.191-10.191-2.495-31.669,0.52-38.896l21.18,12.779c8.135,4.908,18.319,4.908,26.454,0l81.354-49.092
				c2.711-1.639,6.109-1.636,8.817,0.009L490.809,96.2c2.554,1.547,4.117,4.313,4.125,7.3V262.668z M76.801,230.4
				c0-32.99,26.744-59.733,59.733-59.733s59.733,26.744,59.733,59.733c0,25.6-38.263,88.783-59.733,121.275
				C115.059,319.191,76.801,256.017,76.801,230.4z"/>
			<path d="M179.201,230.4c0-23.564-19.103-42.667-42.667-42.667S93.867,206.836,93.867,230.4s19.102,42.667,42.667,42.667
				C160.087,273.039,179.173,253.952,179.201,230.4z M110.934,230.4c0-14.138,11.461-25.6,25.6-25.6s25.6,11.462,25.6,25.6
				s-11.462,25.6-25.6,25.6C122.402,255.984,110.949,244.532,110.934,230.4z"/>
			<path d="M438.742,154.608L438.742,154.608l-33.402-15.259l15.26-33.408c1.284-2.775,0.984-6.025-0.785-8.518
				c-1.77-2.493-4.739-3.849-7.782-3.552s-5.695,2.199-6.95,4.987l-15.261,33.403L356.417,117c-2.773-1.276-6.017-0.973-8.506,0.795
				s-3.843,4.731-3.551,7.77c0.292,3.039,2.185,5.69,4.965,6.952l26.291,12.009c-0.065,0.28-0.115,0.563-0.15,0.849
				c0.091,3.231,2.01,6.129,4.95,7.472l-12.946,28.336c-1.265,2.773-0.955,6.011,0.814,8.493c1.769,2.482,4.728,3.833,7.762,3.542
				s5.683-2.178,6.948-4.952l15.257-33.401l33.406,15.259c2.772,1.265,6.008,0.956,8.49-0.812s3.832-4.725,3.542-7.758
				C443.4,158.521,441.514,155.873,438.742,154.608z"/>
			<path d="M280.542,308.525c-4.541-1.254-9.24,1.409-10.496,5.95c-1.347,4.964-3.292,9.746-5.792,14.242
				c-1.11,1.972-1.391,4.304-0.781,6.483c0.61,2.179,2.062,4.026,4.035,5.134c1.273,0.723,2.711,1.102,4.175,1.1
				c3.086,0.003,5.933-1.66,7.446-4.35c3.177-5.699,5.651-11.763,7.367-18.058c0.604-2.182,0.315-4.514-0.801-6.484
				C284.578,310.572,282.725,309.127,280.542,308.525z"/>
			<path d="M288.021,263.608c-0.589-4.666-4.824-7.989-9.496-7.45c-4.679,0.569-8.011,4.821-7.446,9.5
				c0.713,5.9,1.363,11.592,1.712,16.958c0.295,4.483,4.015,7.971,8.508,7.975c0.188,0,0.379-0.009,0.567-0.017
				c4.703-0.309,8.266-4.372,7.958-9.075C289.45,275.833,288.776,269.824,288.021,263.608z"/>
			<path d="M243.017,350.116c-4.551,2.668-9.357,4.876-14.346,6.592c-4.451,1.556-6.797,6.424-5.242,10.875
				c1.556,4.451,6.424,6.797,10.875,5.242c6.055-2.092,11.888-4.78,17.413-8.025c4.055-2.402,5.394-7.637,2.992-11.692
				C252.307,349.053,247.072,347.714,243.017,350.116z"/>
			<path d="M276.234,238.308h0.263c4.71-0.147,8.411-4.081,8.271-8.792c-0.046-1.558-0.075-3.108-0.075-4.658
				c-0.016-3.896,0.176-7.791,0.575-11.667c0.483-4.68-2.911-8.869-7.59-9.365c-4.679-0.496-8.876,2.887-9.385,7.565
				c-0.461,4.474-0.683,8.969-0.667,13.467c0,1.717,0.029,3.45,0.083,5.175C267.849,234.641,271.624,238.305,276.234,238.308z"/>
			<path d="M347.289,139.85L347.289,139.85c-6.072,0.988-12.082,2.315-18.005,3.975c-4.098,1.159-6.714,5.163-6.129,9.382
				c0.585,4.219,4.191,7.36,8.45,7.36c0.788,0.002,1.572-0.107,2.33-0.325c5.313-1.48,10.703-2.668,16.146-3.558
				c4.648-0.771,7.792-5.164,7.021-9.813C356.33,142.222,351.937,139.079,347.289,139.85z"/>
			<path d="M303.45,159.103c-2.833-1.138-6.058-0.675-8.457,1.213v0c-5.266,4.094-9.904,8.937-13.767,14.375
				c-1.757,2.492-2.05,5.732-0.77,8.499c1.28,2.767,3.939,4.641,6.975,4.917s5.989-1.09,7.745-3.582
				c2.902-4.078,6.386-7.708,10.342-10.775c2.408-1.877,3.628-4.898,3.202-7.921C308.292,162.805,306.283,160.241,303.45,159.103z"
				/>
			<path d="M202.807,364.93c-1.719-1.486-3.964-2.215-6.228-2.022c-4.396,0.317-8.733,0.45-12.929,0.45l-3.804-0.042
				c-4.672,0.009-8.507,3.699-8.695,8.367c-0.09,4.714,3.658,8.608,8.371,8.7l4.129,0.042c4.596,0,9.342-0.15,14.163-0.5
				c2.257-0.162,4.358-1.215,5.838-2.927c1.481-1.711,2.221-3.941,2.057-6.198C205.573,368.532,204.526,366.416,202.807,364.93z"/>
		</g>
	</g>
</g>
<g>
</g>
<g>
</g>
<g>
</g>
<g>
</g>
<g>
</g>
<g>
</g>
<g>
</g>
<g>
</g>
<g>
</g>
<g>
</g>
<g>
</g>
<g>
</g>
<g>
</g>
<g>
</g>
<g>
</g>
</svg>
